<mxfile host="Electron" agent="Mozilla/5.0 (Windows NT 10.0; Win64; x64) AppleWebKit/537.36 (KHTML, like Gecko) draw.io/24.7.17 Chrome/128.0.6613.36 Electron/32.0.1 Safari/537.36" version="24.7.17">
  <diagram name="第 1 页" id="-cOYSrjcJRh7sZkjvyMP">
    <mxGraphModel dx="1420" dy="822" grid="1" gridSize="10" guides="1" tooltips="1" connect="1" arrows="1" fold="1" page="1" pageScale="1" pageWidth="1169" pageHeight="827" math="0" shadow="0">
      <root>
        <mxCell id="0" />
        <mxCell id="1" parent="0" />
        <mxCell id="kw8a_Yz2JXqcz1kZrhkB-1" value="" style="shape=umlLifeline;perimeter=lifelinePerimeter;whiteSpace=wrap;html=1;container=1;dropTarget=0;collapsible=0;recursiveResize=0;outlineConnect=0;portConstraint=eastwest;newEdgeStyle={&quot;curved&quot;:0,&quot;rounded&quot;:0};participant=umlActor;" parent="1" vertex="1">
          <mxGeometry x="70" y="20" width="20" height="1540" as="geometry" />
        </mxCell>
        <mxCell id="95MT-M7sHsksiMsG3mHQ-1" value="" style="html=1;points=[[0,0,0,0,5],[0,1,0,0,-5],[1,0,0,0,5],[1,1,0,0,-5]];perimeter=orthogonalPerimeter;outlineConnect=0;targetShapes=umlLifeline;portConstraint=eastwest;newEdgeStyle={&quot;curved&quot;:0,&quot;rounded&quot;:0};" parent="kw8a_Yz2JXqcz1kZrhkB-1" vertex="1">
          <mxGeometry x="5" y="440" width="10" height="380" as="geometry" />
        </mxCell>
        <mxCell id="95MT-M7sHsksiMsG3mHQ-28" value="" style="html=1;points=[[0,0,0,0,5],[0,1,0,0,-5],[1,0,0,0,5],[1,1,0,0,-5]];perimeter=orthogonalPerimeter;outlineConnect=0;targetShapes=umlLifeline;portConstraint=eastwest;newEdgeStyle={&quot;curved&quot;:0,&quot;rounded&quot;:0};" parent="kw8a_Yz2JXqcz1kZrhkB-1" vertex="1">
          <mxGeometry x="5" y="920" width="10" height="210" as="geometry" />
        </mxCell>
        <mxCell id="kw8a_Yz2JXqcz1kZrhkB-2" value="前端" style="shape=umlLifeline;perimeter=lifelinePerimeter;whiteSpace=wrap;html=1;container=1;dropTarget=0;collapsible=0;recursiveResize=0;outlineConnect=0;portConstraint=eastwest;newEdgeStyle={&quot;curved&quot;:0,&quot;rounded&quot;:0};" parent="1" vertex="1">
          <mxGeometry x="330" y="20" width="100" height="1540" as="geometry" />
        </mxCell>
        <mxCell id="95MT-M7sHsksiMsG3mHQ-3" value="" style="html=1;points=[[0,0,0,0,5],[0,1,0,0,-5],[1,0,0,0,5],[1,1,0,0,-5]];perimeter=orthogonalPerimeter;outlineConnect=0;targetShapes=umlLifeline;portConstraint=eastwest;newEdgeStyle={&quot;curved&quot;:0,&quot;rounded&quot;:0};" parent="kw8a_Yz2JXqcz1kZrhkB-2" vertex="1">
          <mxGeometry x="45" y="440" width="10" height="380" as="geometry" />
        </mxCell>
        <mxCell id="95MT-M7sHsksiMsG3mHQ-4" style="edgeStyle=orthogonalEdgeStyle;rounded=0;orthogonalLoop=1;jettySize=auto;html=1;curved=0;exitX=1;exitY=0;exitDx=0;exitDy=5;exitPerimeter=0;" parent="kw8a_Yz2JXqcz1kZrhkB-2" source="95MT-M7sHsksiMsG3mHQ-3" edge="1">
          <mxGeometry relative="1" as="geometry">
            <mxPoint x="55" y="470" as="targetPoint" />
            <Array as="points">
              <mxPoint x="75" y="445" />
              <mxPoint x="75" y="470" />
            </Array>
          </mxGeometry>
        </mxCell>
        <mxCell id="95MT-M7sHsksiMsG3mHQ-31" value="" style="html=1;points=[[0,0,0,0,5],[0,1,0,0,-5],[1,0,0,0,5],[1,1,0,0,-5]];perimeter=orthogonalPerimeter;outlineConnect=0;targetShapes=umlLifeline;portConstraint=eastwest;newEdgeStyle={&quot;curved&quot;:0,&quot;rounded&quot;:0};" parent="kw8a_Yz2JXqcz1kZrhkB-2" vertex="1">
          <mxGeometry x="45" y="920" width="10" height="210" as="geometry" />
        </mxCell>
        <mxCell id="kw8a_Yz2JXqcz1kZrhkB-3" value="后端&lt;span style=&quot;color: rgba(0, 0, 0, 0); font-family: monospace; font-size: 0px; text-align: start; text-wrap: nowrap;&quot;&gt;%3CmxGraphModel%3E%3Croot%3E%3CmxCell%20id%3D%220%22%2F%3E%3CmxCell%20id%3D%221%22%20parent%3D%220%22%2F%3E%3CmxCell%20id%3D%222%22%20value%3D%22%3AObject%22%20style%3D%22shape%3DumlLifeline%3Bperimeter%3DlifelinePerimeter%3BwhiteSpace%3Dwrap%3Bhtml%3D1%3Bcontainer%3D1%3BdropTarget%3D0%3Bcollapsible%3D0%3BrecursiveResize%3D0%3BoutlineConnect%3D0%3BportConstraint%3Deastwest%3BnewEdgeStyle%3D%7B%26quot%3Bcurved%26quot%3B%3A0%2C%26quot%3Brounded%26quot%3B%3A0%7D%3B%22%20vertex%3D%221%22%20parent%3D%221%22%3E%3CmxGeometry%20x%3D%22330%22%20y%3D%2220%22%20width%3D%22100%22%20height%3D%22520%22%20as%3D%22geometry%22%2F%3E%3C%2FmxCell%3E%3C%2Froot%3E%3C%2FmxGraphModel%3E&lt;/span&gt;" style="shape=umlLifeline;perimeter=lifelinePerimeter;whiteSpace=wrap;html=1;container=1;dropTarget=0;collapsible=0;recursiveResize=0;outlineConnect=0;portConstraint=eastwest;newEdgeStyle={&quot;curved&quot;:0,&quot;rounded&quot;:0};" parent="1" vertex="1">
          <mxGeometry x="590" y="20" width="100" height="1540" as="geometry" />
        </mxCell>
        <mxCell id="kw8a_Yz2JXqcz1kZrhkB-14" value="" style="html=1;points=[[0,0,0,0,5],[0,1,0,0,-5],[1,0,0,0,5],[1,1,0,0,-5]];perimeter=orthogonalPerimeter;outlineConnect=0;targetShapes=umlLifeline;portConstraint=eastwest;newEdgeStyle={&quot;curved&quot;:0,&quot;rounded&quot;:0};" parent="kw8a_Yz2JXqcz1kZrhkB-3" vertex="1">
          <mxGeometry x="45" y="130" width="10" height="100" as="geometry" />
        </mxCell>
        <mxCell id="kw8a_Yz2JXqcz1kZrhkB-27" value="" style="html=1;points=[[0,0,0,0,5],[0,1,0,0,-5],[1,0,0,0,5],[1,1,0,0,-5]];perimeter=orthogonalPerimeter;outlineConnect=0;targetShapes=umlLifeline;portConstraint=eastwest;newEdgeStyle={&quot;curved&quot;:0,&quot;rounded&quot;:0};" parent="kw8a_Yz2JXqcz1kZrhkB-3" vertex="1">
          <mxGeometry x="45" y="260" width="10" height="50" as="geometry" />
        </mxCell>
        <mxCell id="kw8a_Yz2JXqcz1kZrhkB-34" value="建立一个单独的文件夹，&lt;div&gt;存储BookSourceFile、&lt;/div&gt;&lt;div&gt;CoverImage到本地&lt;/div&gt;" style="html=1;verticalAlign=bottom;endArrow=block;curved=0;rounded=0;exitX=1;exitY=0;exitDx=0;exitDy=5;exitPerimeter=0;" parent="kw8a_Yz2JXqcz1kZrhkB-3" target="kw8a_Yz2JXqcz1kZrhkB-27" edge="1">
          <mxGeometry x="0.2174" y="72" width="80" relative="1" as="geometry">
            <mxPoint x="54.99999999999977" y="259.9999999999999" as="sourcePoint" />
            <mxPoint x="54.99999999999977" y="299.9999999999999" as="targetPoint" />
            <Array as="points">
              <mxPoint x="100" y="260" />
              <mxPoint x="100" y="285" />
            </Array>
            <mxPoint x="70" y="-57" as="offset" />
          </mxGeometry>
        </mxCell>
        <mxCell id="kw8a_Yz2JXqcz1kZrhkB-39" value="" style="html=1;points=[[0,0,0,0,5],[0,1,0,0,-5],[1,0,0,0,5],[1,1,0,0,-5]];perimeter=orthogonalPerimeter;outlineConnect=0;targetShapes=umlLifeline;portConstraint=eastwest;newEdgeStyle={&quot;curved&quot;:0,&quot;rounded&quot;:0};" parent="kw8a_Yz2JXqcz1kZrhkB-3" vertex="1">
          <mxGeometry x="45" y="370" width="10" height="40" as="geometry" />
        </mxCell>
        <mxCell id="95MT-M7sHsksiMsG3mHQ-7" value="" style="html=1;points=[[0,0,0,0,5],[0,1,0,0,-5],[1,0,0,0,5],[1,1,0,0,-5]];perimeter=orthogonalPerimeter;outlineConnect=0;targetShapes=umlLifeline;portConstraint=eastwest;newEdgeStyle={&quot;curved&quot;:0,&quot;rounded&quot;:0};" parent="kw8a_Yz2JXqcz1kZrhkB-3" vertex="1">
          <mxGeometry x="45" y="490" width="10" height="160" as="geometry" />
        </mxCell>
        <mxCell id="95MT-M7sHsksiMsG3mHQ-10" style="edgeStyle=orthogonalEdgeStyle;rounded=0;orthogonalLoop=1;jettySize=auto;html=1;curved=0;exitX=1;exitY=0;exitDx=0;exitDy=5;exitPerimeter=0;" parent="kw8a_Yz2JXqcz1kZrhkB-3" source="95MT-M7sHsksiMsG3mHQ-7" target="95MT-M7sHsksiMsG3mHQ-7" edge="1">
          <mxGeometry relative="1" as="geometry">
            <Array as="points">
              <mxPoint x="75" y="495" />
              <mxPoint x="75" y="530" />
            </Array>
          </mxGeometry>
        </mxCell>
        <mxCell id="95MT-M7sHsksiMsG3mHQ-18" value="" style="html=1;points=[[0,0,0,0,5],[0,1,0,0,-5],[1,0,0,0,5],[1,1,0,0,-5]];perimeter=orthogonalPerimeter;outlineConnect=0;targetShapes=umlLifeline;portConstraint=eastwest;newEdgeStyle={&quot;curved&quot;:0,&quot;rounded&quot;:0};" parent="kw8a_Yz2JXqcz1kZrhkB-3" vertex="1">
          <mxGeometry x="45" y="710" width="10" height="110" as="geometry" />
        </mxCell>
        <mxCell id="95MT-M7sHsksiMsG3mHQ-20" style="edgeStyle=orthogonalEdgeStyle;rounded=0;orthogonalLoop=1;jettySize=auto;html=1;curved=0;exitX=1;exitY=0;exitDx=0;exitDy=5;exitPerimeter=0;" parent="kw8a_Yz2JXqcz1kZrhkB-3" source="95MT-M7sHsksiMsG3mHQ-18" target="95MT-M7sHsksiMsG3mHQ-18" edge="1">
          <mxGeometry relative="1" as="geometry">
            <Array as="points">
              <mxPoint x="75" y="715" />
              <mxPoint x="75" y="750" />
            </Array>
          </mxGeometry>
        </mxCell>
        <mxCell id="95MT-M7sHsksiMsG3mHQ-32" value="" style="html=1;points=[[0,0,0,0,5],[0,1,0,0,-5],[1,0,0,0,5],[1,1,0,0,-5]];perimeter=orthogonalPerimeter;outlineConnect=0;targetShapes=umlLifeline;portConstraint=eastwest;newEdgeStyle={&quot;curved&quot;:0,&quot;rounded&quot;:0};" parent="kw8a_Yz2JXqcz1kZrhkB-3" vertex="1">
          <mxGeometry x="45" y="930" width="10" height="200" as="geometry" />
        </mxCell>
        <mxCell id="95MT-M7sHsksiMsG3mHQ-37" value="加密Password&lt;div&gt;得到EncodedPassword&lt;/div&gt;" style="html=1;verticalAlign=bottom;endArrow=block;curved=0;rounded=0;" parent="kw8a_Yz2JXqcz1kZrhkB-3" target="95MT-M7sHsksiMsG3mHQ-32" edge="1">
          <mxGeometry x="0.1818" y="-70" width="80" relative="1" as="geometry">
            <mxPoint x="55" y="950" as="sourcePoint" />
            <mxPoint x="55" y="970" as="targetPoint" />
            <Array as="points">
              <mxPoint x="100" y="950" />
              <mxPoint x="100" y="990" />
            </Array>
            <mxPoint x="140" as="offset" />
          </mxGeometry>
        </mxCell>
        <mxCell id="_xi1gWjxlkFlNqsPyR04-2" value="生成Uid" style="html=1;verticalAlign=bottom;endArrow=block;curved=0;rounded=0;" edge="1" parent="kw8a_Yz2JXqcz1kZrhkB-3">
          <mxGeometry x="0.1333" y="20" width="80" relative="1" as="geometry">
            <mxPoint x="55" y="1000" as="sourcePoint" />
            <mxPoint x="55" y="1040" as="targetPoint" />
            <Array as="points">
              <mxPoint x="110" y="1000" />
              <mxPoint x="110" y="1040" />
            </Array>
            <mxPoint as="offset" />
          </mxGeometry>
        </mxCell>
        <mxCell id="kw8a_Yz2JXqcz1kZrhkB-4" value="数据库" style="shape=umlLifeline;perimeter=lifelinePerimeter;whiteSpace=wrap;html=1;container=1;dropTarget=0;collapsible=0;recursiveResize=0;outlineConnect=0;portConstraint=eastwest;newEdgeStyle={&quot;curved&quot;:0,&quot;rounded&quot;:0};" parent="1" vertex="1">
          <mxGeometry x="840" y="20" width="100" height="1540" as="geometry" />
        </mxCell>
        <mxCell id="kw8a_Yz2JXqcz1kZrhkB-19" value="" style="html=1;points=[[0,0,0,0,5],[0,1,0,0,-5],[1,0,0,0,5],[1,1,0,0,-5]];perimeter=orthogonalPerimeter;outlineConnect=0;targetShapes=umlLifeline;portConstraint=eastwest;newEdgeStyle={&quot;curved&quot;:0,&quot;rounded&quot;:0};" parent="kw8a_Yz2JXqcz1kZrhkB-4" vertex="1">
          <mxGeometry x="45" y="310" width="10" height="100" as="geometry" />
        </mxCell>
        <mxCell id="95MT-M7sHsksiMsG3mHQ-12" value="" style="html=1;points=[[0,0,0,0,5],[0,1,0,0,-5],[1,0,0,0,5],[1,1,0,0,-5]];perimeter=orthogonalPerimeter;outlineConnect=0;targetShapes=umlLifeline;portConstraint=eastwest;newEdgeStyle={&quot;curved&quot;:0,&quot;rounded&quot;:0};" parent="kw8a_Yz2JXqcz1kZrhkB-4" vertex="1">
          <mxGeometry x="45" y="560" width="10" height="50" as="geometry" />
        </mxCell>
        <mxCell id="95MT-M7sHsksiMsG3mHQ-33" value="" style="html=1;points=[[0,0,0,0,5],[0,1,0,0,-5],[1,0,0,0,5],[1,1,0,0,-5]];perimeter=orthogonalPerimeter;outlineConnect=0;targetShapes=umlLifeline;portConstraint=eastwest;newEdgeStyle={&quot;curved&quot;:0,&quot;rounded&quot;:0};" parent="kw8a_Yz2JXqcz1kZrhkB-4" vertex="1">
          <mxGeometry x="45" y="1070" width="10" height="60" as="geometry" />
        </mxCell>
        <mxCell id="kw8a_Yz2JXqcz1kZrhkB-6" value="" style="shape=umlLifeline;perimeter=lifelinePerimeter;whiteSpace=wrap;html=1;container=1;dropTarget=0;collapsible=0;recursiveResize=0;outlineConnect=0;portConstraint=eastwest;newEdgeStyle={&quot;curved&quot;:0,&quot;rounded&quot;:0};participant=umlActor;" parent="1" vertex="1">
          <mxGeometry x="170" y="20" width="20" height="1540" as="geometry" />
        </mxCell>
        <mxCell id="kw8a_Yz2JXqcz1kZrhkB-10" value="" style="html=1;points=[[0,0,0,0,5],[0,1,0,0,-5],[1,0,0,0,5],[1,1,0,0,-5]];perimeter=orthogonalPerimeter;outlineConnect=0;targetShapes=umlLifeline;portConstraint=eastwest;newEdgeStyle={&quot;curved&quot;:0,&quot;rounded&quot;:0};" parent="kw8a_Yz2JXqcz1kZrhkB-6" vertex="1">
          <mxGeometry x="5" y="110" width="10" height="300" as="geometry" />
        </mxCell>
        <mxCell id="kw8a_Yz2JXqcz1kZrhkB-8" value="普通用户:用户" style="text;align=center;fontStyle=1;verticalAlign=middle;spacingLeft=3;spacingRight=3;strokeColor=none;rotatable=0;points=[[0,0.5],[1,0.5]];portConstraint=eastwest;html=1;" parent="1" vertex="1">
          <mxGeometry x="40" width="80" height="26" as="geometry" />
        </mxCell>
        <mxCell id="kw8a_Yz2JXqcz1kZrhkB-9" value="管理员:用户" style="text;align=center;fontStyle=1;verticalAlign=middle;spacingLeft=3;spacingRight=3;strokeColor=none;rotatable=0;points=[[0,0.5],[1,0.5]];portConstraint=eastwest;html=1;" parent="1" vertex="1">
          <mxGeometry x="140" width="80" height="26" as="geometry" />
        </mxCell>
        <mxCell id="kw8a_Yz2JXqcz1kZrhkB-12" value="上传请求，填写&lt;div&gt;BookInfo、上传BookSourceFile、&lt;/div&gt;&lt;div&gt;CoverImage&lt;/div&gt;" style="html=1;verticalAlign=bottom;endArrow=block;curved=0;rounded=0;entryX=0;entryY=0;entryDx=0;entryDy=5;entryPerimeter=0;" parent="1" source="kw8a_Yz2JXqcz1kZrhkB-10" target="kw8a_Yz2JXqcz1kZrhkB-13" edge="1">
          <mxGeometry width="80" relative="1" as="geometry">
            <mxPoint x="180" y="130" as="sourcePoint" />
            <mxPoint x="250" y="140" as="targetPoint" />
          </mxGeometry>
        </mxCell>
        <mxCell id="kw8a_Yz2JXqcz1kZrhkB-13" value="" style="html=1;points=[[0,0,0,0,5],[0,1,0,0,-5],[1,0,0,0,5],[1,1,0,0,-5]];perimeter=orthogonalPerimeter;outlineConnect=0;targetShapes=umlLifeline;portConstraint=eastwest;newEdgeStyle={&quot;curved&quot;:0,&quot;rounded&quot;:0};" parent="1" vertex="1">
          <mxGeometry x="375" y="130" width="10" height="300" as="geometry" />
        </mxCell>
        <mxCell id="kw8a_Yz2JXqcz1kZrhkB-17" value="BookInfo，BookSourceFile、CoverImage" style="html=1;verticalAlign=bottom;endArrow=block;curved=0;rounded=0;exitX=1;exitY=0;exitDx=0;exitDy=5;exitPerimeter=0;" parent="1" edge="1">
          <mxGeometry width="80" relative="1" as="geometry">
            <mxPoint x="385" y="150" as="sourcePoint" />
            <mxPoint x="635" y="150" as="targetPoint" />
          </mxGeometry>
        </mxCell>
        <mxCell id="kw8a_Yz2JXqcz1kZrhkB-24" value="验证用户身份" style="html=1;align=left;spacingLeft=2;endArrow=block;rounded=0;edgeStyle=orthogonalEdgeStyle;curved=0;rounded=0;" parent="1" target="kw8a_Yz2JXqcz1kZrhkB-14" edge="1">
          <mxGeometry relative="1" as="geometry">
            <mxPoint x="645" y="160" as="sourcePoint" />
            <Array as="points">
              <mxPoint x="645" y="160" />
              <mxPoint x="675" y="160" />
              <mxPoint x="675" y="190" />
            </Array>
            <mxPoint x="649.9999999999998" y="179.9655172413793" as="targetPoint" />
          </mxGeometry>
        </mxCell>
        <mxCell id="kw8a_Yz2JXqcz1kZrhkB-26" value="返回Access_Failed" style="html=1;verticalAlign=bottom;endArrow=open;dashed=1;endSize=8;curved=0;rounded=0;exitX=0;exitY=1;exitDx=0;exitDy=-5;exitPerimeter=0;" parent="1" source="kw8a_Yz2JXqcz1kZrhkB-14" target="kw8a_Yz2JXqcz1kZrhkB-13" edge="1">
          <mxGeometry relative="1" as="geometry">
            <mxPoint x="600" y="200" as="sourcePoint" />
            <mxPoint x="520" y="200" as="targetPoint" />
          </mxGeometry>
        </mxCell>
        <mxCell id="kw8a_Yz2JXqcz1kZrhkB-28" value="Alt" style="shape=umlFrame;whiteSpace=wrap;html=1;pointerEvents=0;fillColor=#dae8fc;strokeColor=#6c8ebf;" parent="1" vertex="1">
          <mxGeometry x="220" y="200" width="630" height="180" as="geometry" />
        </mxCell>
        <mxCell id="kw8a_Yz2JXqcz1kZrhkB-31" value="" style="line;strokeWidth=1;fillColor=#dae8fc;align=left;verticalAlign=middle;spacingTop=-1;spacingLeft=3;spacingRight=3;rotatable=0;labelPosition=right;points=[];portConstraint=eastwest;strokeColor=#6c8ebf;dashed=1;" parent="1" vertex="1">
          <mxGeometry x="220" y="260" width="630" height="8" as="geometry" />
        </mxCell>
        <mxCell id="kw8a_Yz2JXqcz1kZrhkB-32" value="验证失败" style="text;align=center;fontStyle=0;verticalAlign=middle;spacingLeft=3;spacingRight=3;rotatable=0;points=[[0,0.5],[1,0.5]];portConstraint=eastwest;html=1;fontColor=#0066CC;" parent="1" vertex="1">
          <mxGeometry x="770" y="210" width="80" height="26" as="geometry" />
        </mxCell>
        <mxCell id="kw8a_Yz2JXqcz1kZrhkB-33" value="验证成功" style="text;align=center;fontStyle=0;verticalAlign=middle;spacingLeft=3;spacingRight=3;rotatable=0;points=[[0,0.5],[1,0.5]];portConstraint=eastwest;html=1;fontColor=#0066CC;" parent="1" vertex="1">
          <mxGeometry x="220" y="267" width="80" height="26" as="geometry" />
        </mxCell>
        <mxCell id="kw8a_Yz2JXqcz1kZrhkB-35" value="&lt;span style=&quot;color: rgba(0, 0, 0, 0); font-family: monospace; font-size: 0px; text-align: start; background-color: rgb(251, 251, 251);&quot;&gt;%3CmxGraphModel%3E%3Croot%3E%3CmxCell%20id%3D%220%22%2F%3E%3CmxCell%20id%3D%221%22%20parent%3D%220%22%2F%3E%3CmxCell%20id%3D%222%22%20value%3D%22%E8%BF%94%E5%9B%9E%E5%A4%B1%E8%B4%A5%E4%BF%A1%E6%81%AF%22%20style%3D%22html%3D1%3BverticalAlign%3Dbottom%3BendArrow%3Dopen%3Bdashed%3D1%3BendSize%3D8%3Bcurved%3D0%3Brounded%3D0%3BexitX%3D0%3BexitY%3D1%3BexitDx%3D0%3BexitDy%3D-5%3BexitPerimeter%3D0%3B%22%20edge%3D%221%22%20parent%3D%221%22%3E%3CmxGeometry%20relative%3D%221%22%20as%3D%22geometry%22%3E%3CmxPoint%20x%3D%22635%22%20y%3D%22245%22%20as%3D%22sourcePoint%22%2F%3E%3CmxPoint%20x%3D%22385%22%20y%3D%22245%22%20as%3D%22targetPoint%22%2F%3E%3C%2FmxGeometry%3E%3C%2FmxCell%3E%3C%2Froot%3E%3C%2FmxGraphModel%3E&lt;/span&gt;&lt;span style=&quot;color: rgba(0, 0, 0, 0); font-family: monospace; font-size: 0px; text-align: start; background-color: rgb(251, 251, 251);&quot;&gt;%3CmxGraphModel%3E%3Croot%3E%3CmxCell%20id%3D%220%22%2F%3E%3CmxCell%20id%3D%221%22%20parent%3D%220%22%2F%3E%3CmxCell%20id%3D%222%22%20value%3D%22%E8%BF%94%E5%9B%9E%E5%A4%B1%E8%B4%A5%E4%BF%A1%E6%81%AF%22%20style%3D%22html%3D1%3BverticalAlign%3Dbottom%3BendArrow%3Dopen%3Bdashed%3D1%3BendSize%3D8%3Bcurved%3D0%3Brounded%3D0%3BexitX%3D0%3BexitY%3D1%3BexitDx%3D0%3BexitDy%3D-5%3BexitPerimeter%3D0%3B%22%20edge%3D%221%22%20parent%3D%221%22%3E%3CmxGeometry%20relative%3D%221%22%20as%3D%22geometry%22%3E%3CmxPoint%20x%3D%22635%22%20y%3D%22245%22%20as%3D%22sourcePoint%22%2F%3E%3CmxPoint%20x%3D%22385%22%20y%3D%22245%22%20as%3D%22targetPoint%22%2F%3E%3C%2FmxGeometry%3E%3C%2FmxCell%3E%3C%2Froot%3E%3C%2FmxGraphModel%3E&lt;/span&gt;&lt;span style=&quot;color: rgba(0, 0, 0, 0); font-family: monospace; font-size: 0px; text-align: start; background-color: rgb(251, 251, 251);&quot;&gt;%3CmxGraphModel%3E%3Croot%3E%3CmxCell%20id%3D%220%22%2F%3E%3CmxCell%20id%3D%221%22%20parent%3D%220%22%2F%3E%3CmxCell%20id%3D%222%22%20value%3D%22%E8%BF%94%E5%9B%9E%E5%A4%B1%E8%B4%A5%E4%BF%A1%E6%81%AF%22%20style%3D%22html%3D1%3BverticalAlign%3Dbottom%3BendArrow%3Dopen%3Bdashed%3D1%3BendSize%3D8%3Bcurved%3D0%3Brounded%3D0%3BexitX%3D0%3BexitY%3D1%3BexitDx%3D0%3BexitDy%3D-5%3BexitPerimeter%3D0%3B%22%20edge%3D%221%22%20parent%3D%221%22%3E%3CmxGeometry%20relative%3D%221%22%20as%3D%22geometry%22%3E%3CmxPoint%20x%3D%22635%22%20y%3D%22245%22%20as%3D%22sourcePoint%22%2F%3E%3CmxPoint%20x%3D%22385%22%20y%3D%22245%22%20as%3D%22targetPoint%22%2F%3E%3C%2FmxGeometry%3E%3C%2FmxCell%3E%3C%2Froot%3E%3C%2FmxGraphModel%3E&lt;/span&gt;&lt;span style=&quot;color: rgba(0, 0, 0, 0); font-family: monospace; font-size: 0px; text-align: start; background-color: rgb(251, 251, 251);&quot;&gt;%3CmxGraphModel%3E%3Croot%3E%3CmxCell%20id%3D%220%22%2F%3E%3CmxCell%20id%3D%221%22%20parent%3D%220%22%2F%3E%3CmxCell%20id%3D%222%22%20value%3D%22%E8%BF%94%E5%9B%9E%E5%A4%B1%E8%B4%A5%E4%BF%A1%E6%81%AF%22%20style%3D%22html%3D1%3BverticalAlign%3Dbottom%3BendArrow%3Dopen%3Bdashed%3D1%3BendSize%3D8%3Bcurved%3D0%3Brounded%3D0%3BexitX%3D0%3BexitY%3D1%3BexitDx%3D0%3BexitDy%3D-5%3BexitPerimeter%3D0%3B%22%20edge%3D%221%22%20parent%3D%221%22%3E%3CmxGeometry%20relative%3D%221%22%20as%3D%22geometry%22%3E%3CmxPoint%20x%3D%22635%22%20y%3D%22245%22%20as%3D%22sourcePoint%22%2F%3E%3CmxPoint%20x%3D%22385%22%20y%3D%22245%22%20as%3D%22targetPoint%22%2F%3E%3C%2FmxGeometry%3E%3C%2FmxCell%3E%3C%2Froot%3E%3C%2FmxGraphModel%3E&lt;/span&gt;" style="html=1;verticalAlign=bottom;endArrow=block;curved=0;rounded=0;" parent="1" edge="1">
          <mxGeometry width="80" relative="1" as="geometry">
            <mxPoint x="644.9999999999998" y="329.9999999999999" as="sourcePoint" />
            <mxPoint x="884.9999999999998" y="329.9999999999999" as="targetPoint" />
          </mxGeometry>
        </mxCell>
        <mxCell id="kw8a_Yz2JXqcz1kZrhkB-37" value="存储BookInfo的各项条目、&lt;div&gt;BookPath、自增ID&lt;/div&gt;" style="edgeLabel;html=1;align=center;verticalAlign=middle;resizable=0;points=[];" parent="kw8a_Yz2JXqcz1kZrhkB-35" vertex="1" connectable="0">
          <mxGeometry x="-0.0333" y="-1" relative="1" as="geometry">
            <mxPoint x="19" y="19" as="offset" />
          </mxGeometry>
        </mxCell>
        <mxCell id="kw8a_Yz2JXqcz1kZrhkB-36" value="返回Access_Failed" style="html=1;verticalAlign=bottom;endArrow=open;dashed=1;endSize=8;curved=0;rounded=0;" parent="1" edge="1">
          <mxGeometry relative="1" as="geometry">
            <mxPoint x="375" y="250.0000000000001" as="sourcePoint" />
            <mxPoint x="185" y="250.0000000000001" as="targetPoint" />
          </mxGeometry>
        </mxCell>
        <mxCell id="kw8a_Yz2JXqcz1kZrhkB-38" value="返回Completed/Faild" style="html=1;verticalAlign=bottom;endArrow=open;dashed=1;endSize=8;curved=0;rounded=0;" parent="1" source="kw8a_Yz2JXqcz1kZrhkB-19" target="kw8a_Yz2JXqcz1kZrhkB-6" edge="1">
          <mxGeometry relative="1" as="geometry">
            <mxPoint x="840" y="400" as="sourcePoint" />
            <mxPoint x="645" y="430" as="targetPoint" />
            <Array as="points">
              <mxPoint x="770" y="430" />
            </Array>
          </mxGeometry>
        </mxCell>
        <mxCell id="kw8a_Yz2JXqcz1kZrhkB-43" value="返回Completed/Faild" style="html=1;verticalAlign=bottom;endArrow=open;dashed=1;endSize=8;curved=0;rounded=0;" parent="1" edge="1">
          <mxGeometry relative="1" as="geometry">
            <mxPoint x="635" y="320" as="sourcePoint" />
            <mxPoint x="385" y="320" as="targetPoint" />
          </mxGeometry>
        </mxCell>
        <mxCell id="kw8a_Yz2JXqcz1kZrhkB-44" value="返回Completed/Faild" style="html=1;verticalAlign=bottom;endArrow=open;dashed=1;endSize=8;curved=0;rounded=0;" parent="1" edge="1">
          <mxGeometry relative="1" as="geometry">
            <mxPoint x="375" y="330" as="sourcePoint" />
            <mxPoint x="185" y="330" as="targetPoint" />
          </mxGeometry>
        </mxCell>
        <mxCell id="95MT-M7sHsksiMsG3mHQ-2" value="发出下载请求" style="html=1;verticalAlign=bottom;endArrow=block;curved=0;rounded=0;entryX=0;entryY=0;entryDx=0;entryDy=5;entryPerimeter=0;exitX=1;exitY=0;exitDx=0;exitDy=5;exitPerimeter=0;" parent="1" source="95MT-M7sHsksiMsG3mHQ-1" target="95MT-M7sHsksiMsG3mHQ-3" edge="1">
          <mxGeometry width="80" relative="1" as="geometry">
            <mxPoint x="80" y="460" as="sourcePoint" />
            <mxPoint x="160" y="460" as="targetPoint" />
          </mxGeometry>
        </mxCell>
        <mxCell id="95MT-M7sHsksiMsG3mHQ-6" value="获得BookID" style="text;html=1;align=center;verticalAlign=middle;whiteSpace=wrap;rounded=0;" parent="1" vertex="1">
          <mxGeometry x="410" y="460" width="60" height="30" as="geometry" />
        </mxCell>
        <mxCell id="95MT-M7sHsksiMsG3mHQ-8" value="下载请求包含BookID、用户信息" style="html=1;verticalAlign=bottom;endArrow=block;curved=0;rounded=0;" parent="1" source="95MT-M7sHsksiMsG3mHQ-3" target="95MT-M7sHsksiMsG3mHQ-7" edge="1">
          <mxGeometry width="80" relative="1" as="geometry">
            <mxPoint x="430" y="520" as="sourcePoint" />
            <mxPoint x="510" y="520" as="targetPoint" />
            <Array as="points">
              <mxPoint x="440" y="510" />
            </Array>
          </mxGeometry>
        </mxCell>
        <mxCell id="95MT-M7sHsksiMsG3mHQ-11" value="验证用户登陆状态" style="text;html=1;align=center;verticalAlign=middle;whiteSpace=wrap;rounded=0;" parent="1" vertex="1">
          <mxGeometry x="670" y="520" width="60" height="30" as="geometry" />
        </mxCell>
        <mxCell id="95MT-M7sHsksiMsG3mHQ-13" value="根据BookID查询BookPath" style="html=1;verticalAlign=bottom;endArrow=block;curved=0;rounded=0;" parent="1" edge="1">
          <mxGeometry width="80" relative="1" as="geometry">
            <mxPoint x="645" y="580" as="sourcePoint" />
            <mxPoint x="885" y="580" as="targetPoint" />
          </mxGeometry>
        </mxCell>
        <mxCell id="95MT-M7sHsksiMsG3mHQ-14" value="返回BookPath" style="html=1;verticalAlign=bottom;endArrow=open;dashed=1;endSize=8;curved=0;rounded=0;" parent="1" source="95MT-M7sHsksiMsG3mHQ-12" target="95MT-M7sHsksiMsG3mHQ-7" edge="1">
          <mxGeometry relative="1" as="geometry">
            <mxPoint x="730" y="610" as="sourcePoint" />
            <mxPoint x="650" y="610" as="targetPoint" />
            <Array as="points">
              <mxPoint x="780" y="630" />
            </Array>
            <mxPoint as="offset" />
          </mxGeometry>
        </mxCell>
        <mxCell id="95MT-M7sHsksiMsG3mHQ-15" value="管理员&lt;div&gt;上传电子书&lt;/div&gt;" style="text;align=center;fontStyle=1;verticalAlign=middle;spacingLeft=3;spacingRight=3;strokeColor=none;rotatable=0;points=[[0,0.5],[1,0.5]];portConstraint=eastwest;html=1;" parent="1" vertex="1">
          <mxGeometry x="990" y="260" width="80" height="26" as="geometry" />
        </mxCell>
        <mxCell id="95MT-M7sHsksiMsG3mHQ-16" value="普通用户&lt;div&gt;下载电子书&lt;/div&gt;" style="text;align=center;fontStyle=1;verticalAlign=middle;spacingLeft=3;spacingRight=3;strokeColor=none;rotatable=0;points=[[0,0.5],[1,0.5]];portConstraint=eastwest;html=1;" parent="1" vertex="1">
          <mxGeometry x="990" y="640" width="80" height="26" as="geometry" />
        </mxCell>
        <mxCell id="95MT-M7sHsksiMsG3mHQ-17" value="返回Access_Failed" style="html=1;verticalAlign=bottom;endArrow=open;dashed=1;endSize=8;curved=0;rounded=0;" parent="1" target="95MT-M7sHsksiMsG3mHQ-1" edge="1">
          <mxGeometry relative="1" as="geometry">
            <mxPoint x="635" y="670" as="sourcePoint" />
            <mxPoint x="79.66666666666652" y="670" as="targetPoint" />
          </mxGeometry>
        </mxCell>
        <mxCell id="95MT-M7sHsksiMsG3mHQ-23" value="根据BookPath找到BookSourceFile、CoverImage" style="text;html=1;align=center;verticalAlign=middle;whiteSpace=wrap;rounded=0;" parent="1" vertex="1">
          <mxGeometry x="660" y="740" width="130" height="30" as="geometry" />
        </mxCell>
        <mxCell id="95MT-M7sHsksiMsG3mHQ-24" value="返回BookSourceFile、CoverImage" style="html=1;verticalAlign=bottom;endArrow=open;dashed=1;endSize=8;curved=0;rounded=0;" parent="1" target="95MT-M7sHsksiMsG3mHQ-1" edge="1">
          <mxGeometry relative="1" as="geometry">
            <mxPoint x="635" y="839.17" as="sourcePoint" />
            <mxPoint x="80" y="840" as="targetPoint" />
          </mxGeometry>
        </mxCell>
        <mxCell id="95MT-M7sHsksiMsG3mHQ-25" value="Alt" style="shape=umlFrame;whiteSpace=wrap;html=1;pointerEvents=0;fillColor=#dae8fc;strokeColor=#6c8ebf;" parent="1" vertex="1">
          <mxGeometry x="230" y="640" width="570" height="230" as="geometry" />
        </mxCell>
        <mxCell id="95MT-M7sHsksiMsG3mHQ-26" value="" style="line;strokeWidth=1;fillColor=#dae8fc;align=left;verticalAlign=middle;spacingTop=-1;spacingLeft=3;spacingRight=3;rotatable=0;labelPosition=right;points=[];portConstraint=eastwest;strokeColor=#6c8ebf;dashed=1;" parent="1" vertex="1">
          <mxGeometry x="230" y="710" width="570" height="8" as="geometry" />
        </mxCell>
        <mxCell id="95MT-M7sHsksiMsG3mHQ-27" value="BookPath==null" style="text;align=center;fontStyle=0;verticalAlign=middle;spacingLeft=3;spacingRight=3;rotatable=0;points=[[0,0.5],[1,0.5]];portConstraint=eastwest;html=1;fontColor=#0066CC;" parent="1" vertex="1">
          <mxGeometry x="690" y="640" width="110" height="26" as="geometry" />
        </mxCell>
        <mxCell id="95MT-M7sHsksiMsG3mHQ-29" value="普通用户注册" style="text;align=center;fontStyle=1;verticalAlign=middle;spacingLeft=3;spacingRight=3;strokeColor=none;rotatable=0;points=[[0,0.5],[1,0.5]];portConstraint=eastwest;html=1;" parent="1" vertex="1">
          <mxGeometry x="990" y="1040" width="80" height="26" as="geometry" />
        </mxCell>
        <mxCell id="95MT-M7sHsksiMsG3mHQ-35" value="输入用户名、密码" style="html=1;verticalAlign=bottom;endArrow=block;curved=0;rounded=0;exitX=1;exitY=0;exitDx=0;exitDy=5;exitPerimeter=0;entryX=0;entryY=0;entryDx=0;entryDy=5;entryPerimeter=0;" parent="1" source="95MT-M7sHsksiMsG3mHQ-28" target="95MT-M7sHsksiMsG3mHQ-31" edge="1">
          <mxGeometry width="80" relative="1" as="geometry">
            <mxPoint x="160" y="980" as="sourcePoint" />
            <mxPoint x="240" y="980" as="targetPoint" />
          </mxGeometry>
        </mxCell>
        <mxCell id="95MT-M7sHsksiMsG3mHQ-36" value="Username、Password" style="html=1;verticalAlign=bottom;endArrow=block;curved=0;rounded=0;" parent="1" edge="1">
          <mxGeometry width="80" relative="1" as="geometry">
            <mxPoint x="385" y="960" as="sourcePoint" />
            <mxPoint x="635" y="960" as="targetPoint" />
          </mxGeometry>
        </mxCell>
        <mxCell id="95MT-M7sHsksiMsG3mHQ-38" value="Uid、Username、Password" style="html=1;verticalAlign=bottom;endArrow=block;curved=0;rounded=0;" parent="1" edge="1">
          <mxGeometry width="80" relative="1" as="geometry">
            <mxPoint x="645" y="1090" as="sourcePoint" />
            <mxPoint x="885" y="1090" as="targetPoint" />
          </mxGeometry>
        </mxCell>
        <mxCell id="95MT-M7sHsksiMsG3mHQ-39" value="账号密码登录" style="text;align=center;fontStyle=1;verticalAlign=middle;spacingLeft=3;spacingRight=3;strokeColor=none;rotatable=0;points=[[0,0.5],[1,0.5]];portConstraint=eastwest;html=1;" parent="1" vertex="1">
          <mxGeometry x="990" y="1170" width="80" height="26" as="geometry" />
        </mxCell>
        <mxCell id="95MT-M7sHsksiMsG3mHQ-40" value="绑定手机号" style="text;align=center;fontStyle=1;verticalAlign=middle;spacingLeft=3;spacingRight=3;strokeColor=none;rotatable=0;points=[[0,0.5],[1,0.5]];portConstraint=eastwest;html=1;" parent="1" vertex="1">
          <mxGeometry x="990" y="1360" width="80" height="26" as="geometry" />
        </mxCell>
        <mxCell id="95MT-M7sHsksiMsG3mHQ-41" value="手机号登录" style="text;align=center;fontStyle=1;verticalAlign=middle;spacingLeft=3;spacingRight=3;strokeColor=none;rotatable=0;points=[[0,0.5],[1,0.5]];portConstraint=eastwest;html=1;" parent="1" vertex="1">
          <mxGeometry x="990" y="1470" width="80" height="26" as="geometry" />
        </mxCell>
        <mxCell id="_xi1gWjxlkFlNqsPyR04-1" value="return Uid" style="html=1;verticalAlign=bottom;endArrow=open;dashed=1;endSize=8;curved=0;rounded=0;" edge="1" parent="1">
          <mxGeometry relative="1" as="geometry">
            <mxPoint x="890" y="1150" as="sourcePoint" />
            <mxPoint x="90" y="1150" as="targetPoint" />
          </mxGeometry>
        </mxCell>
      </root>
    </mxGraphModel>
  </diagram>
</mxfile>
